<svg width="29" height="24" viewBox="0 0 29 24" fill="none" xmlns="http://www.w3.org/2000/svg">
<path d="M5.4375 14.9695C6.15152 14.3729 7.05777 14.0746 8.15625 14.0746C9.36458 14.0746 10.4631 14.4814 11.4517 15.2949C12.4403 16.1085 12.9347 17.2203 12.9347 18.6305C12.9347 20.1492 12.4129 21.4237 11.3693 22.4542C10.3258 23.4847 8.95265 24 7.25 24C4.88826 24 3.07576 23.1322 1.8125 21.3966C0.604167 19.6068 0 17.5729 0 15.2949C0 12.0949 0.933712 9.13898 2.80114 6.42712C4.66856 3.71526 7.52462 1.57288 11.3693 0L12.6875 2.35933C11.4242 2.9017 10.1884 3.66102 8.98011 4.63729C7.77178 5.55932 6.75568 6.64407 5.93182 7.89153C5.16288 9.13898 4.77841 10.4949 4.77841 11.9593C4.77841 12.4475 4.80587 12.9356 4.8608 13.4237C4.97064 13.9119 5.16288 14.4271 5.4375 14.9695ZM21.5028 14.9695C22.2169 14.3729 23.1231 14.0746 24.2216 14.0746C25.4299 14.0746 26.5284 14.4814 27.517 15.2949C28.5057 16.1085 29 17.2203 29 18.6305C29 20.1492 28.4782 21.4237 27.4347 22.4542C26.3911 23.4847 25.018 24 23.3153 24C20.9536 24 19.1411 23.1322 17.8778 21.3966C16.6695 19.6068 16.0653 17.5729 16.0653 15.2949C16.0653 12.0949 16.9991 9.13898 18.8665 6.42712C20.7339 3.71526 23.59 1.57288 27.4347 0L28.7528 2.35933C27.4896 2.9017 26.2538 3.66102 25.0455 4.63729C23.8371 5.55932 22.821 6.64407 21.9972 7.89153C21.2282 9.13898 20.8438 10.4949 20.8438 11.9593C20.8438 12.4475 20.8712 12.9356 20.9261 13.4237C21.036 13.9119 21.2282 14.4271 21.5028 14.9695Z" fill="white"/>
</svg>
