<svg width="20" height="20" opacity="50%" viewBox="0 0 20 20" fill="none" xmlns="http://www.w3.org/2000/svg">
<path d="M14.5386 6.65161L14.5387 6.65157L14.5335 6.64645C13.9983 6.11118 13.1217 6.11118 12.5864 6.64645L8.80998 10.4229L7.41355 9.02644L7.06 9.37999L7.41355 9.02644C6.87829 8.49117 6.00171 8.49117 5.46645 9.02644C4.9284 9.56448 4.93566 10.4272 5.46136 10.9684L5.46131 10.9684L5.46719 10.9743L7.84643 13.3435C7.84658 13.3437 7.84673 13.3438 7.84688 13.344C8.11774 13.6146 8.46804 13.74 8.80998 13.74C9.15904 13.74 9.5106 13.6165 9.78353 13.3435L14.5335 8.59355C14.5335 8.59355 14.5335 8.59354 14.5335 8.59354C15.0716 8.05551 15.0643 7.19276 14.5386 6.65161ZM5.67 0.5H14.34C15.9135 0.5 17.1927 1.04954 18.0797 1.9779C18.9686 2.90829 19.5 4.25778 19.5 5.92V14.091C19.5 15.7473 18.9689 17.094 18.0799 18.0232C17.1929 18.9504 15.9135 19.5 14.34 19.5H5.67C4.09637 19.5 2.81424 18.9503 1.92461 18.0228C1.03322 17.0934 0.5 15.7467 0.5 14.091V5.92C0.5 4.25838 1.03347 2.90897 1.92483 1.97836C2.81441 1.04962 4.09639 0.5 5.67 0.5Z" stroke="#fff"/>
</svg>
