<svg width="25" height="24" viewBox="0 0 25 24" fill="none" xmlns="http://www.w3.org/2000/svg">
<rect x="0.799072" width="23.9999" height="23.9999" rx="11.9999" fill="white"/>
<path d="M12.7994 17.0998C13.9084 17.0998 14.1898 16.4044 14.8463 16.1726C15.3387 15.9987 16.0398 16.0845 16.361 16.1401C16.4085 16.1483 16.4574 16.1379 16.4972 16.1111C16.5371 16.0842 16.5648 16.0431 16.5744 15.9964L16.6752 15.5536C16.6848 15.5141 16.7072 15.4787 16.7389 15.4527C16.7706 15.4268 16.81 15.4118 16.8511 15.4099C17.9883 15.3566 18.1852 15.0367 18.1993 14.8466C18.2001 14.8077 18.1886 14.7696 18.1663 14.7375C18.144 14.7055 18.1121 14.6812 18.075 14.6681C15.5591 13.7663 15.6858 12.7023 15.932 12.1992C15.9752 12.1157 16.0384 12.0437 16.116 11.9896C16.1936 11.9355 16.2833 11.9008 16.3775 11.8886C17.3646 11.7379 17.2544 10.6947 16.6612 11.01C16.0187 11.3508 15.6764 11.1027 15.6764 11.1027V9.60521C15.6764 8.01262 14.3891 6.8999 12.7994 6.8999C11.2097 6.8999 9.92239 8.00335 9.92239 9.59593V11.1004C9.92239 11.1004 9.58006 11.3485 8.9376 11.0077C8.34438 10.6924 8.23418 11.7356 9.22132 11.8863C9.31547 11.8985 9.40521 11.9332 9.48281 11.9873C9.56042 12.0414 9.62356 12.1133 9.66682 12.1969C9.91301 12.7 10.0396 13.764 7.52373 14.6658C7.4867 14.6789 7.45478 14.7032 7.43248 14.7352C7.41018 14.7672 7.39863 14.8054 7.39946 14.8443C7.41352 15.0344 7.61048 15.3543 8.74768 15.4076C8.78878 15.4095 8.82816 15.4245 8.85987 15.4504C8.89158 15.4764 8.91393 15.5118 8.92354 15.5513L9.02436 15.9941C9.03401 16.0408 9.0617 16.0819 9.10154 16.1088C9.14138 16.1356 9.19024 16.146 9.23773 16.1378C9.55896 16.0822 10.26 15.9964 10.7524 16.1703C11.409 16.4044 11.6903 17.0998 12.7994 17.0998Z" fill="#7F4E52"/>
</svg>
