<svg width="10" height="12" viewBox="0 0 10 12" fill="none" xmlns="http://www.w3.org/2000/svg">
<path d="M9.99937 4.97356C9.0265 4.9759 8.07748 4.6702 7.28639 4.09964V8.07893C7.28612 8.81594 7.06255 9.5353 6.64556 10.1408C6.22857 10.7463 5.63805 11.2092 4.95296 11.4674C4.26786 11.7257 3.52085 11.767 2.81181 11.5859C2.10276 11.4048 1.46548 11.01 0.985175 10.4541C0.504873 9.89825 0.204442 9.20789 0.124055 8.47535C0.0436689 7.7428 0.187158 7.00299 0.535336 6.35483C0.883515 5.70667 1.41979 5.18106 2.07244 4.84829C2.7251 4.51551 3.46304 4.39142 4.18757 4.49262V6.49407C3.85602 6.38899 3.5 6.39216 3.17034 6.50311C2.84068 6.61407 2.55425 6.82714 2.35195 7.11191C2.14965 7.39667 2.04182 7.73856 2.04387 8.08875C2.04591 8.43894 2.15773 8.77953 2.36335 9.06187C2.56896 9.34421 2.85787 9.55387 3.1888 9.66091C3.51973 9.76795 3.87577 9.76689 4.20607 9.65788C4.53637 9.54887 4.82404 9.3375 5.02799 9.05393C5.23195 8.77037 5.34176 8.42913 5.34176 8.07893V0.299805H7.28639C7.28504 0.465269 7.2988 0.630507 7.32749 0.793431C7.39507 1.15713 7.53557 1.50312 7.74041 1.81024C7.94524 2.11735 8.21011 2.37913 8.5188 2.57957C8.95798 2.87216 9.47287 3.02811 9.99937 3.028V4.97356Z" fill="#7F4E52"/>
</svg>
