<svg width="77" height="55" viewBox="0 0 77 55" fill="none" xmlns="http://www.w3.org/2000/svg">
<path d="M3.59839 41.075H0L0.422346 39H9.93359L9.49435 41.075H5.91285L3.80112 51.1758H1.46977L3.59839 41.075Z" fill="white"/>
<path d="M9.86153 42.1897H11.9395L11.534 44.1104C11.962 43.493 12.4407 43.0071 12.97 42.6527C13.5106 42.2869 14.0399 42.104 14.558 42.104C14.6706 42.104 14.7551 42.1097 14.8114 42.1211C14.879 42.1211 14.9297 42.1268 14.9635 42.1383L14.5411 44.179C13.8992 44.179 13.291 44.3162 12.7166 44.5906C12.1535 44.8535 11.7086 45.2365 11.382 45.7396L10.2501 51.1758H7.98631L9.86153 42.1897Z" fill="white"/>
<path d="M17.7682 51.3473C17.115 51.3473 16.5519 51.1872 16.0789 50.8671C15.6171 50.5355 15.2567 50.0954 14.9977 49.5466C14.7499 48.9864 14.626 48.3576 14.626 47.6602C14.626 46.9171 14.7555 46.2083 15.0145 45.5338C15.2736 44.8592 15.6284 44.259 16.0789 43.7331C16.5406 43.2072 17.0587 42.7956 17.6331 42.4984C18.2188 42.1897 18.8326 42.0354 19.4745 42.0354C20.0827 42.0354 20.6008 42.2011 21.0288 42.5327C21.4567 42.8528 21.7496 43.2644 21.9072 43.7674L22.2451 42.224H24.5089L23.1912 48.5348C23.1799 48.592 23.1686 48.6492 23.1574 48.7063C23.1461 48.7521 23.1405 48.7978 23.1405 48.8435C23.1405 49.0836 23.2756 49.2094 23.5459 49.2208L23.1405 51.1758C22.9378 51.2101 22.7576 51.2387 22.5999 51.2615C22.4535 51.2844 22.324 51.2958 22.2113 51.2958C21.8059 51.2958 21.4905 51.2101 21.2653 51.0386C21.04 50.8671 20.9274 50.6099 20.9274 50.2669C20.9274 50.2212 20.933 50.1697 20.9443 50.1125C20.9556 50.0439 20.9668 49.9696 20.9781 49.8896C20.9893 49.7981 21.0062 49.7067 21.0288 49.6152C20.6008 50.1754 20.094 50.6041 19.5083 50.9014C18.9227 51.1986 18.3426 51.3473 17.7682 51.3473ZM18.7819 49.3923C18.9733 49.3923 19.1761 49.358 19.3901 49.2894C19.604 49.2094 19.8124 49.1065 20.0151 48.9807C20.2291 48.8435 20.4262 48.6835 20.6064 48.5005C20.7866 48.3062 20.9387 48.1004 21.0625 47.8832L21.5018 45.7396C21.468 45.408 21.3666 45.1108 21.1977 44.8478C21.0288 44.5849 20.8204 44.3791 20.5726 44.2304C20.3249 44.0704 20.0602 43.9904 19.7786 43.9904C19.4182 43.9904 19.0691 44.0875 18.7312 44.2819C18.4046 44.4648 18.1118 44.7163 17.8527 45.0364C17.5937 45.3451 17.3853 45.6995 17.2276 46.0997C17.0812 46.4884 17.008 46.8885 17.008 47.3001C17.008 47.6888 17.0812 48.0432 17.2276 48.3633C17.3741 48.6835 17.5768 48.935 17.8358 49.1179C18.1061 49.3008 18.4215 49.3923 18.7819 49.3923Z" fill="white"/>
<path d="M26.7224 42.1897H28.7665L28.4118 43.8532C28.7046 43.4645 29.0425 43.1386 29.4254 42.8757C29.8196 42.6013 30.2419 42.3955 30.6924 42.2583C31.1542 42.1097 31.6272 42.0354 32.1115 42.0354C32.6296 42.0354 33.0294 42.1268 33.311 42.3098C33.5926 42.4927 33.7896 42.7442 33.9023 43.0643C34.0262 43.373 34.0881 43.7217 34.0881 44.1104C34.0881 44.3505 34.0712 44.5906 34.0374 44.8307C34.0036 45.0707 33.9642 45.3165 33.9192 45.5681L32.7535 51.1758H30.4897L31.5371 46.134C31.5822 45.9625 31.6103 45.8024 31.6216 45.6538C31.6441 45.5052 31.6554 45.3623 31.6554 45.2251C31.6554 44.8249 31.5653 44.5334 31.3851 44.3505C31.2162 44.1561 30.9853 44.0589 30.6924 44.0589C30.4221 44.0589 30.1293 44.139 29.814 44.299C29.4986 44.4591 29.2002 44.682 28.9186 44.9678C28.637 45.2422 28.4005 45.5623 28.209 45.9282L27.1109 51.1758H24.8472L26.7224 42.1897Z" fill="white"/>
<path d="M37.8898 51.3473C37.1689 51.3473 36.4876 51.2272 35.8456 50.9871C35.2149 50.7471 34.7081 50.4041 34.3251 49.9582L35.457 48.5177C35.885 48.895 36.3243 49.1865 36.7748 49.3923C37.2253 49.5866 37.6814 49.6838 38.1432 49.6838C38.4585 49.6838 38.7288 49.6381 38.9541 49.5466C39.1793 49.4437 39.3539 49.3123 39.4778 49.1522C39.6017 48.9807 39.6636 48.7864 39.6636 48.5691C39.6636 48.2833 39.5397 48.0718 39.2919 47.9346C39.0442 47.7974 38.6556 47.6488 38.1263 47.4887C37.5406 47.2944 37.0563 47.1115 36.6734 46.94C36.3017 46.7571 36.0258 46.5456 35.8456 46.3055C35.6654 46.0539 35.5753 45.7395 35.5753 45.3623C35.5753 44.722 35.7499 44.1504 36.099 43.6474C36.4594 43.1443 36.9381 42.7499 37.535 42.4641C38.1432 42.1668 38.8189 42.0182 39.5622 42.0182C40.2042 42.0182 40.7786 42.1211 41.2854 42.3269C41.7922 42.5213 42.2427 42.8299 42.6369 43.2529L41.4375 44.642C41.0771 44.299 40.7279 44.0532 40.39 43.9046C40.0634 43.7446 39.703 43.6645 39.3088 43.6645C39.016 43.6645 38.7513 43.7103 38.5148 43.8017C38.2896 43.8817 38.1094 44.0075 37.9742 44.179C37.8391 44.3505 37.7715 44.5563 37.7715 44.7964C37.7715 45.0593 37.8729 45.2537 38.0756 45.3794C38.2896 45.4937 38.6556 45.6309 39.1737 45.791C39.8044 45.9739 40.3225 46.1683 40.7279 46.3741C41.1334 46.5684 41.4375 46.8028 41.6402 47.0772C41.8429 47.3516 41.9443 47.7003 41.9443 48.1233C41.9443 48.7521 41.7753 49.3065 41.4375 49.7867C41.0996 50.2669 40.6266 50.6499 40.0184 50.9357C39.4102 51.2101 38.7007 51.3473 37.8898 51.3473Z" fill="white"/>
<path d="M42.5097 49.7696L48.2874 43.8017H43.9626L44.3004 42.1897H51.058L50.7539 43.5959L44.9931 49.5638H49.5882L49.2503 51.1758H42.2225L42.5097 49.7696Z" fill="white"/>
<path d="M53.2661 51.3473C51.8808 51.3473 51.1881 50.6156 51.1881 49.1522C51.1881 48.9464 51.1994 48.7349 51.2219 48.5177C51.2557 48.3005 51.3007 48.0661 51.3571 47.8146L52.5396 42.1897H54.7865L53.7222 47.3173C53.6434 47.6488 53.6039 47.9346 53.6039 48.1747C53.6039 48.9864 53.9418 49.3923 54.6176 49.3923C54.8879 49.3923 55.1582 49.3351 55.4285 49.2208C55.71 49.095 55.9916 48.9121 56.2732 48.672C56.5547 48.4319 56.8138 48.129 57.0503 47.7631L58.216 42.1897H60.4797L59.1451 48.5348C59.1339 48.592 59.1226 48.6492 59.1113 48.7063C59.1113 48.7521 59.1113 48.7978 59.1113 48.8435C59.1113 49.0836 59.2465 49.2094 59.5168 49.2208L59.1113 51.1758C58.9086 51.2101 58.7284 51.2387 58.5707 51.2615C58.4243 51.2844 58.2892 51.2958 58.1653 51.2958C57.7824 51.2958 57.4783 51.2158 57.253 51.0557C57.0278 50.8957 56.9151 50.6499 56.9151 50.3183C56.9151 50.2612 56.9151 50.1983 56.9151 50.1297C56.9264 50.0611 56.9377 49.9753 56.9489 49.8725C56.9715 49.7581 56.9996 49.6324 57.0334 49.4952C56.5266 50.1011 55.9466 50.5641 55.2933 50.8842C54.6514 51.1929 53.9756 51.3473 53.2661 51.3473Z" fill="white"/>
<path d="M63.6005 55C62.677 55 61.928 54.8342 61.3536 54.5027C60.7905 54.1826 60.3456 53.7253 60.019 53.1308L61.5056 51.9132C61.7309 52.3362 62.0575 52.6677 62.4855 52.9078C62.9135 53.1479 63.4034 53.268 63.9553 53.268C64.3945 53.268 64.8168 53.1765 65.2223 52.9936C65.6278 52.8221 65.9825 52.5477 66.2866 52.1704C66.602 51.8046 66.8159 51.3301 66.9286 50.7471L67.1651 49.6152C66.7822 50.1297 66.3091 50.5298 65.746 50.8156C65.1941 51.09 64.6366 51.2272 64.0735 51.2272C63.4541 51.2272 62.9191 51.0672 62.4686 50.7471C62.0294 50.4269 61.6971 49.9982 61.4719 49.4609C61.2466 48.9121 61.134 48.3062 61.134 47.6431C61.134 46.9 61.2635 46.1911 61.5225 45.5166C61.7928 44.8421 62.1589 44.2476 62.6206 43.7331C63.0937 43.2072 63.6286 42.7956 64.2256 42.4984C64.8337 42.1897 65.4701 42.0354 66.1346 42.0354C66.7878 42.0354 67.3228 42.1954 67.7395 42.5155C68.1675 42.8242 68.4828 43.2415 68.6855 43.7674L69.0065 42.1897H71L69.1924 50.7471C69.0122 51.6388 68.6517 52.3991 68.1111 53.0279C67.5705 53.6681 66.9117 54.154 66.1346 54.4855C65.3575 54.8285 64.5128 55 63.6005 55ZM65.2392 49.3923C65.4644 49.3923 65.6841 49.3523 65.8981 49.2722C66.1233 49.1922 66.3373 49.0836 66.54 48.9464C66.7427 48.8092 66.9286 48.6492 67.0975 48.4662C67.2665 48.2719 67.4129 48.0775 67.5368 47.8832L67.976 45.7396C67.9309 45.3851 67.824 45.0765 67.655 44.8135C67.4861 44.5506 67.2777 44.3505 67.0299 44.2133C66.7934 44.0647 66.5288 43.9904 66.2359 43.9904C65.8643 43.9904 65.5151 44.0875 65.1885 44.2819C64.8619 44.4762 64.5691 44.7335 64.31 45.0536C64.051 45.3623 63.8483 45.711 63.7019 46.0997C63.5554 46.4884 63.4822 46.8885 63.4822 47.3001C63.4822 47.6774 63.5554 48.0318 63.7019 48.3633C63.8483 48.6835 64.051 48.935 64.31 49.1179C64.5803 49.3008 64.8901 49.3923 65.2392 49.3923Z" fill="white"/>
<path d="M51.9291 35.7315C51.5431 35.7366 51.1608 35.6571 50.8089 35.4986C50.457 35.34 50.1441 35.1063 49.8922 34.8138C49.6441 34.5092 49.4657 34.1539 49.3694 33.7729C49.2732 33.392 49.2614 32.9946 49.335 32.6086L49.6883 30.6073C50.4637 26.204 54.682 22.6235 59.0925 22.6235H64.2284C64.6145 22.6189 64.997 22.6988 65.3489 22.8577C65.7008 23.0167 66.0136 23.2508 66.2653 23.5436C66.5134 23.8483 66.6918 24.2035 66.7881 24.5845C66.8843 24.9654 66.8961 25.3628 66.8225 25.7488L66.4123 28.0749C66.3594 28.3552 66.1982 28.6032 65.9635 28.7654C65.7289 28.9275 65.4398 28.9906 65.159 28.941C64.8781 28.8914 64.6282 28.733 64.4633 28.5003C64.2984 28.2676 64.2319 27.9793 64.2782 27.6979L64.6885 25.3718C64.7068 25.2973 64.7088 25.2198 64.6945 25.1446C64.6802 25.0693 64.6498 24.998 64.6055 24.9355C64.5565 24.886 64.4975 24.8475 64.4325 24.8226C64.3675 24.7976 64.298 24.7868 64.2284 24.7908H59.0925C55.685 24.7908 52.4247 27.5675 51.8224 30.982L51.4691 32.9833C51.4506 33.0577 51.4484 33.1352 51.4628 33.2105C51.4771 33.2858 51.5076 33.3572 51.5521 33.4196C51.6002 33.4704 51.6589 33.5099 51.7241 33.5353C51.7893 33.5607 51.8593 33.5714 51.9291 33.5666C52.0755 33.5597 52.2218 33.5827 52.3591 33.634C52.4964 33.6853 52.6218 33.7639 52.7279 33.8651C52.8339 33.9663 52.9183 34.0879 52.976 34.2227C53.0337 34.3574 53.0634 34.5025 53.0634 34.649C53.0634 34.7956 53.0337 34.9407 52.976 35.0754C52.9183 35.2102 52.8339 35.3318 52.7279 35.433C52.6218 35.5342 52.4964 35.6128 52.3591 35.6641C52.2218 35.7154 52.0755 35.7383 51.9291 35.7315Z" fill="white"/>
<path d="M67.3253 35.9686H63.612C63.4656 35.9754 63.3194 35.9525 63.1821 35.9012C63.0448 35.8499 62.9193 35.7713 62.8133 35.6701C62.7072 35.5689 62.6228 35.4472 62.5651 35.3125C62.5075 35.1777 62.4777 35.0327 62.4777 34.8861C62.4777 34.7395 62.5075 34.5945 62.5651 34.4597C62.6228 34.325 62.7072 34.2033 62.8133 34.1022C62.9193 34.001 63.0448 33.9223 63.1821 33.871C63.3194 33.8197 63.4656 33.7968 63.612 33.8037H67.3253C68.6413 33.8037 69.9502 32.6845 70.185 31.3613L74.2563 8.27069C74.3135 8.01194 74.3126 7.74372 74.2535 7.48538C74.1945 7.22705 74.0788 6.98504 73.9149 6.77684C73.7471 6.58775 73.5395 6.43821 73.3071 6.33898C73.0746 6.23976 72.823 6.19332 72.5704 6.20301H58.6207C57.3047 6.20301 55.9934 7.32221 55.761 8.64533L55.1516 12.093C55.0987 12.3733 54.9375 12.6214 54.7028 12.7835C54.4682 12.9456 54.1791 13.0087 53.8983 12.9591C53.6174 12.9095 53.3675 12.7512 53.2026 12.5185C53.0377 12.2858 52.9712 11.9974 53.0176 11.716L53.627 8.26357C54.0467 5.89238 56.2353 4.031 58.6207 4.031H72.5704C73.1397 4.01862 73.7046 4.13305 74.2243 4.366C74.7439 4.59895 75.2052 4.94457 75.5747 5.37783C75.941 5.82937 76.2037 6.35582 76.3442 6.92001C76.4848 7.4842 76.4997 8.07236 76.388 8.64296L72.3214 31.736C71.8994 34.1095 69.7131 35.9686 67.3253 35.9686Z" fill="white"/>
<path d="M59.339 27.0909C57.1101 27.0909 54.9879 28.8977 54.5967 31.1219C54.2054 33.3461 55.6922 35.1529 57.9163 35.1529C60.1405 35.1529 62.2698 33.3461 62.6587 31.1219C63.0476 28.8977 61.568 27.0909 59.339 27.0909ZM58.2696 33.1611C58.0149 33.1703 57.7614 33.1206 57.5289 33.016C57.2964 32.9114 57.0911 32.7547 56.929 32.5579C56.7669 32.3611 56.6522 32.1297 56.594 31.8815C56.5358 31.6333 56.5355 31.375 56.5932 31.1266C56.7053 30.5673 57.0026 30.0621 57.4372 29.6926C57.8717 29.323 58.4181 29.1107 58.9881 29.0898C59.2431 29.0805 59.4969 29.1302 59.7296 29.2349C59.9623 29.3397 60.1678 29.4967 60.3299 29.6937C60.4921 29.8908 60.6067 30.1226 60.6647 30.3711C60.7227 30.6196 60.7227 30.8782 60.6645 31.1266C60.5524 31.6857 60.255 32.1906 59.8204 32.5598C59.3858 32.9289 58.8395 33.1408 58.2696 33.1611Z" fill="white"/>
<path d="M42.3424 4.79218L29.04 0.41733H29.1656L5.77859 7.51193L6.06551 7.18945L1.3089 35.2644L0.718471 34.553L22.946 34.3823L28.5017 34.3538H34.0598L39.6155 34.3894L45.1712 34.4463L44.4741 35.032C44.9056 32.6987 45.3633 30.3702 45.8067 28.037C46.2501 25.7037 46.7125 23.3847 47.1701 21.0562C47.6277 18.7277 48.0949 16.3992 48.5762 14.0754C49.0576 11.7516 49.5389 9.42548 50.0321 7.11357L50.1863 7.13966C49.8701 9.49188 49.5334 11.8417 49.1761 14.1892C48.8347 16.5391 48.4648 18.8842 48.1115 21.2293C47.7582 23.5744 47.3835 25.9195 47.0041 28.2622C46.6247 30.605 46.2548 32.9501 45.8636 35.2904L45.7664 35.869H45.1641L39.6084 35.9235L34.0527 35.9591H28.5017L22.946 35.9307L0.711357 35.7576H0L0.128044 35.0604L5.2593 7.04718L5.30435 6.79346L5.54147 6.7247L29.0471 0.0189695L29.1135 0L29.1728 0.0213407L42.3921 4.64516L42.3424 4.79218Z" fill="white"/>
<path d="M14.6042 21.7794L33.0995 19.4438C32.6395 21.0254 33.1256 22.486 33.2845 23.9633C33.3509 24.5893 33.4125 25.2153 33.4837 25.8958L30.9821 26.2183C29.0851 26.4554 27.1882 26.721 25.2912 26.9605C23.1026 27.2355 20.914 27.4964 18.7254 27.7667C17.8955 27.8686 17.0655 27.9706 16.2333 28.082C15.9203 28.1247 15.7946 28.0512 15.759 27.6932C15.5788 26.0784 15.3749 24.4683 15.1307 22.863C15.0619 22.5263 14.8082 22.2015 14.6042 21.7794ZM33.0497 24.926C33.0118 24.6201 32.9644 24.3142 32.9407 24.0083C32.9051 23.5104 32.6419 23.3894 32.1771 23.4653C31.4373 23.5839 30.688 23.6645 29.9411 23.7594C28.2979 23.968 26.6523 24.1791 25.0067 24.3782C24.651 24.4209 24.485 24.5798 24.5324 24.9521C24.5798 25.3243 24.6486 25.7654 24.6818 26.1732C24.715 26.5811 24.9189 26.6807 25.3007 26.6309C27.6418 26.3289 29.9822 26.0349 32.3218 25.7488C33.0284 25.6634 33.0711 25.6279 33.0497 24.926ZM24.4399 26.7091C24.3712 26.1377 24.3214 25.6658 24.2574 25.1963C24.1625 24.5063 24.1009 24.4707 23.4061 24.5608C21.0539 24.8643 18.7009 25.1631 16.3471 25.4571C15.9843 25.5022 15.8207 25.6634 15.8728 26.0262C15.9297 26.4341 16.0175 26.8372 16.0364 27.245C16.0554 27.6528 16.2546 27.7596 16.634 27.7074C18.1065 27.5129 19.579 27.3351 21.0539 27.1478L24.4399 26.7091Z" fill="white"/>
<path d="M11.7492 24.2099C11.1635 23.719 11.2323 22.6733 11.9034 22.0758C12.1484 21.8349 12.4589 21.6715 12.7962 21.6057C13.1335 21.5399 13.4827 21.5748 13.8003 21.7059C14.5709 21.9857 14.8792 22.588 14.9859 23.342C15.1898 24.9228 15.3914 26.4989 15.5906 28.0702C15.6024 28.1532 15.6285 28.2338 15.6617 28.3808L33.7373 26.0831C33.6306 25.1939 33.5357 24.3687 33.429 23.5459C33.3105 22.6141 33.1611 21.6869 33.0591 20.7527C32.9572 19.8184 33.7397 18.9411 34.6644 18.8249C35.1272 18.7763 35.5915 18.9013 35.9674 19.1755C36.3432 19.4498 36.6039 19.8538 36.6989 20.3093C36.7732 20.7659 36.6696 21.2336 36.4093 21.6161C36.149 21.9986 35.7519 22.2667 35.2999 22.3651C35.0011 22.4267 34.9063 22.5382 34.9608 22.8393C35.0557 23.3942 35.1031 23.9562 35.1695 24.5134H35.1885C35.0366 24.5074 34.8844 24.5121 34.7332 24.5276C34.596 24.5401 34.4651 24.5908 34.3552 24.6739C34.2454 24.7569 34.161 24.8691 34.1116 24.9977C34.0623 25.1263 34.0499 25.2662 34.0759 25.4014C34.102 25.5367 34.1654 25.6619 34.2589 25.763L34.2376 25.7488C34.4226 25.8579 34.598 26.0452 34.7901 26.0641C35.3687 26.1211 35.601 26.37 35.454 26.9201C35.419 27.0977 35.3281 27.2593 35.1945 27.3813C35.0609 27.5034 34.8918 27.5794 34.7118 27.5983C31.7811 27.9635 28.8479 28.3239 25.9195 28.6962C23.2803 29.0424 20.6293 29.4028 17.9973 29.7348C17.0488 29.8581 16.1004 29.9861 15.1519 30.0691C14.4571 30.1307 14.2034 29.8984 14.092 29.2012C13.9805 28.5041 13.9212 27.7785 13.8359 27.0672C14.0203 27.0045 14.2009 26.9309 14.3765 26.8466C14.91 26.5408 15.0049 25.846 14.4856 25.5472C13.6011 25.0398 12.655 24.6391 11.735 24.1933L11.7492 24.2099Z" fill="white"/>
<path d="M39.1982 21.7438C38.9066 22.0118 38.5912 22.2584 38.328 22.5477C37.7352 23.1997 37.012 23.1286 36.2627 22.9745L35.3142 22.78L36.5591 21.815C36.5852 21.7936 36.6231 21.7675 36.6492 21.7723C37.5621 21.9335 38.0387 21.1724 38.6671 20.7764C39.7317 20.1053 40.9173 20.4444 41.3181 21.63C41.748 22.8378 41.9256 24.121 41.8397 25.4002C41.7781 26.1874 41.5765 26.8609 40.9102 27.3446C40.8225 27.4062 40.7822 27.5319 40.7182 27.6291L40.1182 28.2172C39.6962 28.5657 39.2812 28.9285 38.8449 29.2605C38.5714 29.462 38.3449 29.7205 38.1811 30.0182C38.0174 30.3158 37.9202 30.6455 37.8964 30.9844C37.7921 31.9139 37.5265 32.8244 37.3297 33.7421C37.2254 34.2163 36.8436 34.4842 36.3006 34.4534C35.7956 34.4178 35.4162 34.093 35.4778 33.6022C35.6035 32.6229 35.8145 31.6554 35.99 30.6832C36.0422 30.3797 36.1228 30.0809 36.1465 29.7774C36.2366 28.7246 37.14 28.2931 37.7494 27.6434C37.9099 27.4469 38.0985 27.2751 38.309 27.1335C38.999 26.7447 39.1342 26.1163 39.0322 25.4263C38.989 25.1155 39.018 24.7988 39.1171 24.5011C39.2163 24.2033 39.3828 23.9324 39.6037 23.7095C39.6862 23.5868 39.7539 23.4547 39.8052 23.3159L39.7863 23.3325C40.0764 23.0089 40.3368 22.6597 40.564 22.2892C40.6061 22.1953 40.6277 22.0934 40.6273 21.9904C40.6269 21.8875 40.6045 21.7858 40.5616 21.6922C40.5187 21.5986 40.4564 21.5152 40.3787 21.4477C40.301 21.3801 40.2098 21.3299 40.1111 21.3004C40.0195 21.2606 39.9202 21.2416 39.8203 21.2447C39.7205 21.2477 39.6226 21.2728 39.5335 21.3181C39.4445 21.3634 39.3666 21.4278 39.3053 21.5068C39.2441 21.5857 39.201 21.6772 39.1793 21.7747L39.1982 21.7438Z" fill="white"/>
<path d="M10.9621 23.3207C10.7036 22.8583 10.4452 22.3983 10.1915 21.9359C9.99465 21.5755 9.75753 21.2672 9.29278 21.3075C8.72132 21.3573 8.40833 21.9809 8.70472 22.5595C9.12917 23.3918 9.62949 24.1861 10.035 25.0255C10.1796 25.3267 10.1203 25.7179 10.2033 26.057C10.2496 26.3086 10.3589 26.5444 10.5211 26.7423C11.1091 27.3351 11.7233 27.8994 12.3516 28.4495C12.7243 28.7711 12.9615 29.2218 13.0155 29.711C13.1958 30.8539 13.4684 31.985 13.7103 33.1184C13.9 34.0076 13.3285 34.6146 12.4915 34.4036C11.958 34.2708 11.8632 33.8108 11.7802 33.3816C11.543 32.298 11.3581 31.2049 11.1328 30.1189C11.0893 29.9781 11.0071 29.8524 10.8957 29.7561C9.94723 28.8455 8.9371 27.9729 8.01945 27.0197C7.71061 26.6699 7.514 26.2354 7.45511 25.7725C7.21804 24.2779 7.42584 22.7465 8.05265 21.3692C8.16751 21.1137 8.34397 20.8907 8.5662 20.7202C8.78843 20.5497 9.04948 20.437 9.32598 20.3922C9.50891 20.3417 9.70259 20.3452 9.88355 20.4024C10.0645 20.4597 10.225 20.5681 10.3456 20.7147C10.4855 20.8831 10.6467 21.0372 10.8032 21.189C11.2917 21.6632 11.7517 22.1374 11.1708 22.8488C11.0973 22.9413 11.1257 23.1144 11.1044 23.2471L10.9621 23.3207Z" fill="white"/>
<path d="M40.1182 28.2172L40.7181 27.641L41.1686 27.475C41.1686 28.2077 41.1947 28.9333 41.1686 29.6565C41.1408 30.0293 41.2609 30.3982 41.5029 30.6832C42.0649 31.3827 42.6008 32.1059 43.1319 32.8173C43.5208 33.346 43.4758 33.9578 43.0489 34.2803C42.6221 34.6028 41.9985 34.4724 41.6262 33.9792C40.9149 33.0568 40.2035 32.132 39.4922 31.193C39.2474 30.8114 39.1365 30.3592 39.1768 29.9076C39.2172 29.456 39.4065 29.0307 39.7151 28.6985C39.8579 28.5453 39.9924 28.3847 40.1182 28.2172Z" fill="white"/>
<path d="M8.04777 27.3611C8.65717 27.9207 9.28079 28.4424 9.84277 29.021C10.151 29.3411 10.0419 30.7946 9.74792 31.1859C9.06739 32.094 8.39871 33.0141 7.68261 33.8938C7.46304 34.1396 7.17873 34.3188 6.86218 34.4107C6.68932 34.4716 6.49962 34.4634 6.33264 34.3879C6.16565 34.3123 6.03427 34.1753 5.96587 34.0052C5.84967 33.642 5.87768 33.2481 6.04412 32.905C6.58238 32.0632 7.22971 31.2997 7.82488 30.4911C7.95101 30.3188 8.02507 30.1139 8.03829 29.9007C8.062 29.0874 8.04777 28.2669 8.04777 27.3611Z" fill="white"/>
<path d="M12.6172 18.7111C12.7025 19.5932 11.8347 20.3496 10.8672 20.2761C10.5247 20.2593 10.1947 20.1419 9.91847 19.9386C9.64224 19.7353 9.43203 19.4552 9.31409 19.1332C9.21654 18.7969 9.21693 18.4399 9.31521 18.1039C9.41349 17.7679 9.60559 17.4669 9.86895 17.2362C10.4262 16.762 11.102 16.743 11.8181 17.0489C12.2923 17.2575 12.8614 17.286 13.3736 17.433C13.5625 17.516 13.7383 17.6262 13.8952 17.7602C13.7364 17.9073 13.5988 18.1135 13.421 18.1918C13.1508 18.2947 12.8657 18.3532 12.5768 18.3649C12.1254 18.3663 11.6746 18.3988 11.2276 18.4621C11.455 18.5438 11.687 18.6119 11.9224 18.666C12.1529 18.6947 12.3849 18.7098 12.6172 18.7111Z" fill="white"/>
<path d="M37.7304 17.874L39.459 18.1965C38.769 17.8337 38.1288 17.5207 37.5146 17.1627C37.2514 17.0085 36.8697 16.7833 37.0807 16.4276C37.1637 16.2853 37.6332 16.2901 37.8988 16.3493C38.4112 16.5063 38.9406 16.601 39.4756 16.6315C40.5521 16.6315 41.1995 17.5326 41.0525 18.6779C40.9386 19.5694 39.9783 20.2286 39.0535 20.0437C38.0244 19.8374 37.3937 18.7846 37.7304 17.874Z" fill="white"/>
<path d="M39.8147 23.2898C39.4765 23.653 39.1666 24.0414 38.8875 24.4517C38.5224 25.0753 37.9794 25.3243 37.3154 25.4429C36.6515 25.5614 35.9544 25.7653 35.2643 25.8626C34.92 25.8684 34.5761 25.8334 34.24 25.7582L34.2613 25.7725C34.2187 24.8975 34.2187 24.8999 35.0486 24.6485C35.1031 24.6319 35.1434 24.5655 35.1885 24.5228H35.1695C35.9164 24.3877 36.6728 24.2999 37.3984 24.0936C37.6569 24.0201 37.8584 23.6787 38.041 23.4273C38.4417 22.8749 38.814 22.2987 39.1958 21.7319L39.1792 21.7533C39.21 21.7533 39.2551 21.7533 39.274 21.7225C39.5633 21.3739 39.9308 21.2482 40.2723 21.5754C40.6138 21.9027 40.4383 22.2441 40.213 22.5737C40.0565 22.8108 39.9332 23.048 39.7957 23.2851L39.8147 23.2898Z" fill="white"/>
<path d="M11.7325 24.1862C12.0598 24.3996 12.3751 24.6319 12.7166 24.8193C13.1766 25.0564 13.6651 25.2627 14.1274 25.5164C14.4689 25.7013 14.7534 25.9479 14.5353 26.4151C14.3171 26.8822 13.9212 26.8039 13.5868 26.6403C12.515 26.1282 11.4527 25.5828 10.407 25.0303C10.2317 24.9297 10.0874 24.7828 9.98972 24.6059C9.60796 23.8945 9.24517 23.1831 8.88949 22.4718C8.67134 22.0355 8.7567 21.6869 9.12661 21.5091C9.49651 21.3312 9.7692 21.5399 9.94704 21.8742C10.2482 22.4457 10.5422 23.0219 10.8457 23.591C11.0378 23.9514 11.2844 24.2431 11.7515 24.1956L11.7325 24.1862Z" fill="white"/>
<path d="M34.9088 27.98C34.814 28.0654 34.7049 28.2361 34.6266 28.2172C34.3895 28.1792 34.0267 28.497 33.9153 27.9658L34.7737 27.8401L34.9088 27.98Z" fill="white"/>
<path d="M15.9772 30.3513C15.8823 30.4366 15.7733 30.6074 15.695 30.5884C15.4579 30.5528 15.0951 30.8682 14.9836 30.337L15.842 30.2114L15.9772 30.3513Z" fill="white"/>
<path d="M35.1884 24.5228C35.1433 24.5655 35.103 24.6319 35.0485 24.6485C34.2186 24.8998 34.2186 24.8856 34.2612 25.7724C34.1677 25.6714 34.1043 25.5461 34.0782 25.4109C34.0522 25.2756 34.0646 25.1358 34.1139 25.0072C34.1633 24.8786 34.2477 24.7664 34.3575 24.6833C34.4674 24.6002 34.5983 24.5495 34.7355 24.5371C34.8859 24.5217 35.0373 24.5169 35.1884 24.5228Z" fill="white"/>
<path d="M39.7957 23.3064C39.9332 23.0693 40.0565 22.8132 40.213 22.5951C40.4383 22.2655 40.6019 21.9051 40.2723 21.5968C39.9427 21.2885 39.561 21.3952 39.274 21.7438C39.2551 21.7652 39.21 21.7652 39.1792 21.7746C39.201 21.6771 39.244 21.5857 39.3053 21.5067C39.3665 21.4278 39.4444 21.3634 39.5335 21.3181C39.6225 21.2728 39.7204 21.2477 39.8203 21.2446C39.9201 21.2416 40.0194 21.2606 40.1111 21.3004C40.2097 21.3299 40.3009 21.3801 40.3786 21.4476C40.4563 21.5152 40.5187 21.5986 40.5616 21.6922C40.6044 21.7858 40.6268 21.8875 40.6272 21.9904C40.6277 22.0934 40.6061 22.1952 40.564 22.2892C40.3384 22.6503 40.0813 22.9907 39.7957 23.3064Z" fill="white"/>
<line y1="37.75" x2="71" y2="37.75" stroke="white" stroke-width="0.5"/>
</svg>
