<svg width="77" height="62" viewBox="0 0 77 62" fill="none" xmlns="http://www.w3.org/2000/svg">
<path d="M4.80375 48.5761H1.39575L1.79575 46.6401H10.8038L10.3878 48.5761H6.99575L4.99575 58.0001H2.78775L4.80375 48.5761Z" fill="white"/>
<path d="M10.7355 49.6161H12.7035L12.3195 51.4081C12.7248 50.8321 13.1782 50.3788 13.6795 50.0481C14.1915 49.7068 14.6928 49.5361 15.1835 49.5361C15.2902 49.5361 15.3702 49.5415 15.4235 49.5521C15.4875 49.5521 15.5355 49.5575 15.5675 49.5681L15.1675 51.4721C14.5595 51.4721 13.9835 51.6001 13.4395 51.8561C12.9062 52.1015 12.4848 52.4588 12.1755 52.9281L11.1035 58.0001H8.9595L10.7355 49.6161Z" fill="white"/>
<path d="M18.2239 58.1601C17.6052 58.1601 17.0719 58.0108 16.6239 57.7121C16.1865 57.4028 15.8452 56.9921 15.5999 56.4801C15.3652 55.9575 15.2479 55.3708 15.2479 54.7201C15.2479 54.0268 15.3705 53.3655 15.6159 52.7361C15.8612 52.1068 16.1972 51.5468 16.6239 51.0561C17.0612 50.5655 17.5519 50.1815 18.0959 49.9041C18.6505 49.6161 19.2319 49.4721 19.8399 49.4721C20.4159 49.4721 20.9065 49.6268 21.3119 49.9361C21.7172 50.2348 21.9945 50.6188 22.1439 51.0881L22.4639 49.6481H24.6079L23.3599 55.5361C23.3492 55.5895 23.3385 55.6428 23.3279 55.6961C23.3172 55.7388 23.3119 55.7815 23.3119 55.8241C23.3119 56.0481 23.4399 56.1655 23.6959 56.1761L23.3119 58.0001C23.1199 58.0321 22.9492 58.0588 22.7999 58.0801C22.6612 58.1015 22.5385 58.1121 22.4319 58.1121C22.0479 58.1121 21.7492 58.0321 21.5359 57.8721C21.3225 57.7121 21.2159 57.4721 21.2159 57.1521C21.2159 57.1095 21.2212 57.0615 21.2319 57.0081C21.2425 56.9441 21.2532 56.8748 21.2639 56.8001C21.2745 56.7148 21.2905 56.6295 21.3119 56.5441C20.9065 57.0668 20.4265 57.4668 19.8719 57.7441C19.3172 58.0215 18.7679 58.1601 18.2239 58.1601ZM19.1839 56.3361C19.3652 56.3361 19.5572 56.3041 19.7599 56.2401C19.9625 56.1655 20.1599 56.0695 20.3519 55.9521C20.5545 55.8241 20.7412 55.6748 20.9119 55.5041C21.0825 55.3228 21.2265 55.1308 21.3439 54.9281L21.7599 52.9281C21.7279 52.6188 21.6319 52.3415 21.4719 52.0961C21.3119 51.8508 21.1145 51.6588 20.8799 51.5201C20.6452 51.3708 20.3945 51.2961 20.1279 51.2961C19.7865 51.2961 19.4559 51.3868 19.1359 51.5681C18.8265 51.7388 18.5492 51.9735 18.3039 52.2721C18.0585 52.5601 17.8612 52.8908 17.7119 53.2641C17.5732 53.6268 17.5039 54.0001 17.5039 54.3841C17.5039 54.7468 17.5732 55.0775 17.7119 55.3761C17.8505 55.6748 18.0425 55.9095 18.2879 56.0801C18.5439 56.2508 18.8425 56.3361 19.1839 56.3361Z" fill="white"/>
<path d="M26.7043 49.6161H28.6403L28.3043 51.1681C28.5816 50.8055 28.9016 50.5015 29.2643 50.2561C29.6376 50.0001 30.0376 49.8081 30.4643 49.6801C30.9016 49.5415 31.3496 49.4721 31.8083 49.4721C32.2989 49.4721 32.6776 49.5575 32.9443 49.7281C33.2109 49.8988 33.3976 50.1335 33.5043 50.4321C33.6216 50.7201 33.6803 51.0455 33.6803 51.4081C33.6803 51.6321 33.6643 51.8561 33.6323 52.0801C33.6003 52.3041 33.5629 52.5335 33.5203 52.7681L32.4163 58.0001H30.2723L31.2643 53.2961C31.3069 53.1361 31.3336 52.9868 31.3443 52.8481C31.3656 52.7095 31.3763 52.5761 31.3763 52.4481C31.3763 52.0748 31.2909 51.8028 31.1203 51.6321C30.9603 51.4508 30.7416 51.3601 30.4643 51.3601C30.2083 51.3601 29.9309 51.4348 29.6323 51.5841C29.3336 51.7335 29.0509 51.9415 28.7843 52.2081C28.5176 52.4641 28.2936 52.7628 28.1123 53.1041L27.0723 58.0001H24.9283L26.7043 49.6161Z" fill="white"/>
<path d="M37.2808 58.1601C36.5981 58.1601 35.9528 58.0481 35.3448 57.8241C34.7474 57.6001 34.2674 57.2801 33.9048 56.8641L34.9768 55.5201C35.3821 55.8721 35.7981 56.1441 36.2248 56.3361C36.6514 56.5175 37.0834 56.6081 37.5208 56.6081C37.8194 56.6081 38.0754 56.5655 38.2888 56.4801C38.5021 56.3841 38.6674 56.2615 38.7848 56.1121C38.9021 55.9521 38.9608 55.7708 38.9608 55.5681C38.9608 55.3015 38.8434 55.1041 38.6088 54.9761C38.3741 54.8481 38.0061 54.7095 37.5048 54.5601C36.9501 54.3788 36.4914 54.2081 36.1288 54.0481C35.7768 53.8775 35.5154 53.6801 35.3448 53.4561C35.1741 53.2215 35.0888 52.9281 35.0888 52.5761C35.0888 51.9788 35.2541 51.4455 35.5848 50.9761C35.9261 50.5068 36.3794 50.1388 36.9448 49.8721C37.5208 49.5948 38.1608 49.4561 38.8648 49.4561C39.4728 49.4561 40.0168 49.5521 40.4968 49.7441C40.9768 49.9255 41.4034 50.2135 41.7768 50.6081L40.6408 51.9041C40.2994 51.5841 39.9688 51.3548 39.6488 51.2161C39.3394 51.0668 38.9981 50.9921 38.6248 50.9921C38.3474 50.9921 38.0968 51.0348 37.8728 51.1201C37.6594 51.1948 37.4888 51.3121 37.3608 51.4721C37.2328 51.6321 37.1688 51.8241 37.1688 52.0481C37.1688 52.2935 37.2648 52.4748 37.4568 52.5921C37.6594 52.6988 38.0061 52.8268 38.4968 52.9761C39.0941 53.1468 39.5848 53.3281 39.9688 53.5201C40.3527 53.7015 40.6408 53.9201 40.8328 54.1761C41.0248 54.4321 41.1208 54.7575 41.1208 55.1521C41.1208 55.7388 40.9608 56.2561 40.6408 56.7041C40.3208 57.1521 39.8728 57.5095 39.2968 57.7761C38.7208 58.0321 38.0488 58.1601 37.2808 58.1601Z" fill="white"/>
<path d="M41.6562 56.6881L47.1283 51.1201H43.0323L43.3523 49.6161H49.7523L49.4643 50.9281L44.0083 56.4961H48.3603L48.0403 58.0001H41.3843L41.6562 56.6881Z" fill="white"/>
<path d="M51.8435 58.1601C50.5315 58.1601 49.8755 57.4775 49.8755 56.1121C49.8755 55.9201 49.8862 55.7228 49.9075 55.5201C49.9395 55.3175 49.9822 55.0988 50.0355 54.8641L51.1555 49.6161H53.2835L52.2755 54.4001C52.2008 54.7095 52.1635 54.9761 52.1635 55.2001C52.1635 55.9575 52.4835 56.3361 53.1235 56.3361C53.3795 56.3361 53.6355 56.2828 53.8915 56.1761C54.1582 56.0588 54.4248 55.8881 54.6915 55.6641C54.9582 55.4401 55.2035 55.1575 55.4275 54.8161L56.5315 49.6161H58.6755L57.4115 55.5361C57.4008 55.5895 57.3902 55.6428 57.3795 55.6961C57.3795 55.7388 57.3795 55.7815 57.3795 55.8241C57.3795 56.0481 57.5075 56.1655 57.7635 56.1761L57.3795 58.0001C57.1875 58.0321 57.0168 58.0588 56.8675 58.0801C56.7288 58.1015 56.6008 58.1121 56.4835 58.1121C56.1208 58.1121 55.8328 58.0375 55.6195 57.8881C55.4062 57.7388 55.2995 57.5095 55.2995 57.2001C55.2995 57.1468 55.2995 57.0881 55.2995 57.0241C55.3102 56.9601 55.3208 56.8801 55.3315 56.7841C55.3528 56.6775 55.3795 56.5601 55.4115 56.4321C54.9315 56.9975 54.3822 57.4295 53.7635 57.7281C53.1555 58.0161 52.5155 58.1601 51.8435 58.1601Z" fill="white"/>
<path d="M61.6311 61.5681C60.7565 61.5681 60.0471 61.4135 59.5031 61.1041C58.9698 60.8055 58.5485 60.3788 58.2391 59.8241L59.6471 58.6881C59.8605 59.0828 60.1698 59.3921 60.5751 59.6161C60.9805 59.8401 61.4445 59.9521 61.9671 59.9521C62.3831 59.9521 62.7831 59.8668 63.1671 59.6961C63.5511 59.5361 63.8871 59.2801 64.1751 58.9281C64.4738 58.5868 64.6765 58.1441 64.7831 57.6001L65.0071 56.5441C64.6445 57.0241 64.1965 57.3975 63.6631 57.6641C63.1405 57.9201 62.6125 58.0481 62.0791 58.0481C61.4925 58.0481 60.9858 57.8988 60.5591 57.6001C60.1431 57.3015 59.8285 56.9015 59.6151 56.4001C59.4018 55.8881 59.2951 55.3228 59.2951 54.7041C59.2951 54.0108 59.4178 53.3495 59.6631 52.7201C59.9191 52.0908 60.2658 51.5361 60.7031 51.0561C61.1511 50.5655 61.6578 50.1815 62.2231 49.9041C62.7991 49.6161 63.4018 49.4721 64.0311 49.4721C64.6498 49.4721 65.1565 49.6215 65.5511 49.9201C65.9565 50.2081 66.2551 50.5975 66.4471 51.0881L66.7511 49.6161H68.6391L66.9271 57.6001C66.7565 58.4321 66.4151 59.1415 65.9031 59.7281C65.3911 60.3255 64.7671 60.7788 64.0311 61.0881C63.2951 61.4081 62.4951 61.5681 61.6311 61.5681ZM63.1831 56.3361C63.3965 56.3361 63.6045 56.2988 63.8071 56.2241C64.0205 56.1495 64.2231 56.0481 64.4151 55.9201C64.6071 55.7921 64.7831 55.6428 64.9431 55.4721C65.1031 55.2908 65.2418 55.1095 65.3591 54.9281L65.7751 52.9281C65.7325 52.5975 65.6311 52.3095 65.4711 52.0641C65.3111 51.8188 65.1138 51.6321 64.8791 51.5041C64.6551 51.3655 64.4045 51.2961 64.1271 51.2961C63.7751 51.2961 63.4445 51.3868 63.1351 51.5681C62.8258 51.7495 62.5485 51.9895 62.3031 52.2881C62.0578 52.5761 61.8658 52.9015 61.7271 53.2641C61.5885 53.6268 61.5191 54.0001 61.5191 54.3841C61.5191 54.7361 61.5885 55.0668 61.7271 55.3761C61.8658 55.6748 62.0578 55.9095 62.3031 56.0801C62.5591 56.2508 62.8525 56.3361 63.1831 56.3361Z" fill="white"/>
<path d="M51.9291 35.7317C51.5431 35.7368 51.1608 35.6573 50.8089 35.4988C50.457 35.3402 50.1441 35.1065 49.8922 34.814C49.6441 34.5093 49.4657 34.1541 49.3694 33.7731C49.2732 33.3922 49.2614 32.9948 49.335 32.6088L49.6883 30.6075C50.4637 26.2042 54.682 22.6237 59.0925 22.6237H64.2284C64.6145 22.619 64.997 22.699 65.3489 22.8579C65.7008 23.0169 66.0136 23.251 66.2653 23.5438C66.5134 23.8484 66.6918 24.2037 66.7881 24.5847C66.8843 24.9656 66.8961 25.363 66.8225 25.749L66.4123 28.0751C66.3594 28.3553 66.1982 28.6034 65.9635 28.7656C65.7289 28.9277 65.4398 28.9908 65.159 28.9412C64.8781 28.8916 64.6282 28.7332 64.4633 28.5005C64.2984 28.2678 64.2319 27.9795 64.2782 27.6981L64.6885 25.3719C64.7068 25.2975 64.7088 25.22 64.6945 25.1447C64.6802 25.0695 64.6498 24.9981 64.6055 24.9356C64.5565 24.8862 64.4975 24.8477 64.4325 24.8228C64.3675 24.7978 64.298 24.787 64.2284 24.791H59.0925C55.685 24.791 52.4247 27.5677 51.8224 30.9822L51.4691 32.9835C51.4506 33.0579 51.4484 33.1354 51.4628 33.2107C51.4771 33.286 51.5076 33.3573 51.5521 33.4198C51.6002 33.4706 51.6589 33.5101 51.7241 33.5355C51.7893 33.5609 51.8593 33.5716 51.9291 33.5668C52.0755 33.5599 52.2218 33.5828 52.3591 33.6341C52.4964 33.6854 52.6218 33.7641 52.7279 33.8653C52.8339 33.9665 52.9183 34.0881 52.976 34.2229C53.0337 34.3576 53.0634 34.5027 53.0634 34.6492C53.0634 34.7958 53.0337 34.9408 52.976 35.0756C52.9183 35.2103 52.8339 35.332 52.7279 35.4332C52.6218 35.5344 52.4964 35.613 52.3591 35.6643C52.2218 35.7156 52.0755 35.7385 51.9291 35.7317Z" fill="white"/>
<path d="M67.3253 35.9687H63.612C63.4656 35.9756 63.3194 35.9527 63.1821 35.9014C63.0448 35.8501 62.9193 35.7714 62.8133 35.6703C62.7072 35.5691 62.6228 35.4474 62.5651 35.3127C62.5075 35.1779 62.4777 35.0329 62.4777 34.8863C62.4777 34.7397 62.5075 34.5947 62.5651 34.4599C62.6228 34.3252 62.7072 34.2035 62.8133 34.1023C62.9193 34.0012 63.0448 33.9225 63.1821 33.8712C63.3194 33.8199 63.4656 33.797 63.612 33.8038H67.3253C68.6413 33.8038 69.9502 32.6846 70.185 31.3615L74.2563 8.27087C74.3135 8.01212 74.3126 7.7439 74.2535 7.48556C74.1945 7.22723 74.0788 6.98523 73.9149 6.77702C73.7471 6.58793 73.5395 6.43839 73.3071 6.33916C73.0746 6.23994 72.823 6.1935 72.5704 6.20319H58.6207C57.3047 6.20319 55.9934 7.32239 55.761 8.64552L55.1516 12.0932C55.0987 12.3735 54.9375 12.6216 54.7028 12.7837C54.4682 12.9458 54.1791 13.0089 53.8983 12.9593C53.6174 12.9097 53.3675 12.7514 53.2026 12.5187C53.0377 12.2859 52.9712 11.9976 53.0176 11.7162L53.627 8.26376C54.0467 5.89256 56.2353 4.03118 58.6207 4.03118H72.5704C73.1397 4.0188 73.7046 4.13324 74.2243 4.36618C74.7439 4.59913 75.2052 4.94476 75.5747 5.37802C75.941 5.82955 76.2037 6.35601 76.3442 6.92019C76.4848 7.48438 76.4997 8.07255 76.388 8.64315L72.3214 31.7362C71.8994 34.1097 69.7131 35.9687 67.3253 35.9687Z" fill="white"/>
<path d="M59.339 27.0908C57.1101 27.0908 54.9879 28.8977 54.5967 31.1218C54.2054 33.346 55.6922 35.1529 57.9163 35.1529C60.1405 35.1529 62.2698 33.346 62.6587 31.1218C63.0476 28.8977 61.568 27.0908 59.339 27.0908ZM58.2696 33.1611C58.0149 33.1702 57.7614 33.1206 57.5289 33.016C57.2964 32.9114 57.0911 32.7546 56.929 32.5578C56.7669 32.3611 56.6522 32.1296 56.594 31.8814C56.5358 31.6332 56.5355 31.3749 56.5932 31.1266C56.7053 30.5673 57.0026 30.0621 57.4372 29.6925C57.8717 29.3229 58.4181 29.1106 58.9881 29.0897C59.2431 29.0805 59.4969 29.1301 59.7296 29.2349C59.9623 29.3396 60.1678 29.4966 60.3299 29.6937C60.4921 29.8907 60.6067 30.1225 60.6647 30.371C60.7227 30.6195 60.7227 30.8781 60.6645 31.1266C60.5524 31.6856 60.255 32.1905 59.8204 32.5597C59.3858 32.9289 58.8395 33.1407 58.2696 33.1611Z" fill="white"/>
<path d="M42.3424 4.79218L29.04 0.41733H29.1656L5.77859 7.51193L6.06551 7.18945L1.3089 35.2644L0.718471 34.553L22.946 34.3823L28.5017 34.3538H34.0598L39.6155 34.3894L45.1712 34.4463L44.4741 35.032C44.9056 32.6987 45.3633 30.3702 45.8067 28.037C46.2501 25.7037 46.7125 23.3847 47.1701 21.0562C47.6277 18.7277 48.0949 16.3992 48.5762 14.0754C49.0576 11.7516 49.5389 9.42548 50.0321 7.11357L50.1863 7.13966C49.8701 9.49188 49.5334 11.8417 49.1761 14.1892C48.8347 16.5391 48.4648 18.8842 48.1115 21.2293C47.7582 23.5744 47.3835 25.9195 47.0041 28.2622C46.6247 30.605 46.2548 32.9501 45.8636 35.2904L45.7664 35.869H45.1641L39.6084 35.9235L34.0527 35.9591H28.5017L22.946 35.9307L0.711357 35.7576H0L0.128044 35.0604L5.2593 7.04718L5.30435 6.79346L5.54147 6.7247L29.0471 0.0189695L29.1135 0L29.1728 0.0213407L42.3921 4.64516L42.3424 4.79218Z" fill="white"/>
<path d="M14.6042 21.7795L33.0995 19.4438C32.6395 21.0254 33.1256 22.4861 33.2845 23.9633C33.3509 24.5893 33.4125 25.2153 33.4837 25.8959L30.9821 26.2183C29.0851 26.4555 27.1882 26.721 25.2912 26.9605C23.1026 27.2356 20.914 27.4964 18.7254 27.7667C17.8955 27.8687 17.0655 27.9706 16.2333 28.0821C15.9203 28.1248 15.7946 28.0513 15.759 27.6932C15.5788 26.0784 15.3749 24.4684 15.1307 22.8631C15.0619 22.5264 14.8082 22.2015 14.6042 21.7795ZM33.0497 24.926C33.0118 24.6202 32.9644 24.3143 32.9407 24.0084C32.9051 23.5104 32.6419 23.3895 32.1771 23.4654C31.4373 23.5839 30.688 23.6646 29.9411 23.7594C28.2979 23.9681 26.6523 24.1791 25.0067 24.3783C24.651 24.421 24.485 24.5798 24.5324 24.9521C24.5798 25.3244 24.6486 25.7654 24.6818 26.1733C24.715 26.5811 24.9189 26.6807 25.3007 26.6309C27.6418 26.329 29.9822 26.035 32.3218 25.7488C33.0284 25.6635 33.0711 25.6279 33.0497 24.926ZM24.4399 26.7092C24.3712 26.1377 24.3214 25.6659 24.2574 25.1964C24.1625 24.5063 24.1009 24.4708 23.4061 24.5609C21.0539 24.8644 18.7009 25.1632 16.3471 25.4572C15.9843 25.5022 15.8207 25.6635 15.8728 26.0263C15.9297 26.4341 16.0175 26.8372 16.0364 27.2451C16.0554 27.6529 16.2546 27.7596 16.634 27.7074C18.1065 27.513 19.579 27.3352 21.0539 27.1478L24.4399 26.7092Z" fill="white"/>
<path d="M11.7492 24.2097C11.1635 23.7189 11.2323 22.6732 11.9034 22.0756C12.1484 21.8348 12.4589 21.6713 12.7962 21.6055C13.1335 21.5397 13.4827 21.5746 13.8003 21.7057C14.5709 21.9855 14.8792 22.5878 14.9859 23.3418C15.1898 24.9226 15.3914 26.4987 15.5906 28.07C15.6024 28.153 15.6285 28.2336 15.6617 28.3806L33.7373 26.0829C33.6306 25.1937 33.5357 24.3686 33.429 23.5458C33.3105 22.6139 33.1611 21.6867 33.0591 20.7525C32.9572 19.8182 33.7397 18.9409 34.6644 18.8247C35.1272 18.7761 35.5915 18.9011 35.9674 19.1753C36.3432 19.4496 36.6039 19.8536 36.6989 20.3091C36.7732 20.7657 36.6696 21.2335 36.4093 21.6159C36.149 21.9984 35.7519 22.2665 35.2999 22.3649C35.0011 22.4266 34.9063 22.538 34.9608 22.8391C35.0557 23.394 35.1031 23.956 35.1695 24.5132H35.1885C35.0366 24.5072 34.8844 24.512 34.7332 24.5274C34.596 24.5399 34.4651 24.5906 34.3552 24.6737C34.2454 24.7568 34.161 24.869 34.1116 24.9976C34.0623 25.1261 34.0499 25.266 34.0759 25.4012C34.102 25.5365 34.1654 25.6618 34.2589 25.7628L34.2376 25.7486C34.4226 25.8577 34.598 26.045 34.7901 26.064C35.3687 26.1209 35.601 26.3698 35.454 26.92C35.419 27.0975 35.3281 27.2591 35.1945 27.3812C35.0609 27.5032 34.8918 27.5792 34.7118 27.5981C31.7811 27.9633 28.8479 28.3237 25.9195 28.696C23.2803 29.0422 20.6293 29.4026 17.9973 29.7346C17.0488 29.8579 16.1004 29.9859 15.1519 30.0689C14.4571 30.1306 14.2034 29.8982 14.092 29.2011C13.9805 28.5039 13.9212 27.7783 13.8359 27.067C14.0203 27.0043 14.2009 26.9307 14.3765 26.8465C14.91 26.5406 15.0049 25.8458 14.4856 25.547C13.6011 25.0396 12.655 24.6389 11.735 24.1931L11.7492 24.2097Z" fill="white"/>
<path d="M39.1982 21.7441C38.9066 22.012 38.5912 22.2586 38.328 22.5479C37.7352 23.2 37.012 23.1288 36.2627 22.9747L35.3142 22.7803L36.5591 21.8152C36.5852 21.7939 36.6231 21.7678 36.6492 21.7725C37.5621 21.9338 38.0387 21.1726 38.6671 20.7766C39.7317 20.1056 40.9173 20.4447 41.3181 21.6303C41.748 22.8381 41.9256 24.1213 41.8397 25.4005C41.7781 26.1877 41.5765 26.8611 40.9102 27.3448C40.8225 27.4065 40.7822 27.5322 40.7182 27.6294L40.1182 28.2174C39.6962 28.566 39.2812 28.9288 38.8449 29.2607C38.5714 29.4622 38.3449 29.7207 38.1811 30.0184C38.0174 30.316 37.9202 30.6457 37.8964 30.9846C37.7921 31.9141 37.5265 32.8246 37.3297 33.7423C37.2254 34.2165 36.8436 34.4845 36.3006 34.4537C35.7956 34.4181 35.4162 34.0932 35.4778 33.6024C35.6035 32.6231 35.8145 31.6557 35.99 30.6835C36.0422 30.3799 36.1228 30.0812 36.1465 29.7777C36.2366 28.7249 37.14 28.2933 37.7494 27.6436C37.9099 27.4471 38.0985 27.2753 38.309 27.1338C38.999 26.7449 39.1342 26.1166 39.0322 25.4265C38.989 25.1157 39.018 24.7991 39.1171 24.5013C39.2163 24.2035 39.3828 23.9327 39.6037 23.7098C39.6862 23.587 39.7539 23.4549 39.8052 23.3162L39.7863 23.3328C40.0764 23.0091 40.3368 22.66 40.564 22.2894C40.6061 22.1955 40.6277 22.0936 40.6273 21.9907C40.6269 21.8877 40.6045 21.786 40.5616 21.6924C40.5187 21.5988 40.4564 21.5155 40.3787 21.4479C40.301 21.3803 40.2098 21.3301 40.1111 21.3007C40.0195 21.2609 39.9202 21.2418 39.8203 21.2449C39.7205 21.248 39.6226 21.273 39.5335 21.3183C39.4445 21.3637 39.3666 21.4281 39.3053 21.507C39.2441 21.5859 39.201 21.6774 39.1793 21.7749L39.1982 21.7441Z" fill="white"/>
<path d="M10.9621 23.3208C10.7036 22.8585 10.4452 22.3984 10.1915 21.9361C9.99465 21.5756 9.75753 21.2674 9.29278 21.3077C8.72132 21.3575 8.40833 21.9811 8.70472 22.5597C9.12917 23.392 9.62949 24.1863 10.035 25.0257C10.1796 25.3269 10.1203 25.7181 10.2033 26.0572C10.2496 26.3088 10.3589 26.5446 10.5211 26.7425C11.1091 27.3353 11.7233 27.8996 12.3516 28.4497C12.7243 28.7713 12.9615 29.222 13.0155 29.7112C13.1958 30.8541 13.4684 31.9852 13.7103 33.1186C13.9 34.0078 13.3285 34.6148 12.4915 34.4038C11.958 34.271 11.8632 33.811 11.7802 33.3818C11.543 32.2982 11.3581 31.205 11.1328 30.119C11.0893 29.9783 11.0071 29.8526 10.8957 29.7562C9.94723 28.8457 8.9371 27.9731 8.01945 27.0199C7.71061 26.6701 7.514 26.2356 7.45511 25.7726C7.21804 24.278 7.42584 22.7467 8.05265 21.3693C8.16751 21.1139 8.34397 20.8909 8.5662 20.7204C8.78843 20.5499 9.04948 20.4372 9.32598 20.3924C9.50891 20.3418 9.70259 20.3454 9.88355 20.4026C10.0645 20.4599 10.225 20.5683 10.3456 20.7149C10.4855 20.8833 10.6467 21.0374 10.8032 21.1891C11.2917 21.6634 11.7517 22.1376 11.1708 22.849C11.0973 22.9414 11.1257 23.1145 11.1044 23.2473L10.9621 23.3208Z" fill="white"/>
<path d="M40.1182 28.2173L40.7181 27.6411L41.1686 27.4751C41.1686 28.2078 41.1947 28.9334 41.1686 29.6566C41.1408 30.0295 41.2609 30.3983 41.5029 30.6833C42.0649 31.3828 42.6008 32.106 43.1319 32.8174C43.5208 33.3462 43.4758 33.9579 43.0489 34.2804C42.6221 34.6029 41.9985 34.4725 41.6262 33.9793C40.9149 33.0569 40.2035 32.1321 39.4922 31.1931C39.2474 30.8115 39.1365 30.3593 39.1768 29.9077C39.2172 29.4562 39.4065 29.0308 39.7151 28.6986C39.8579 28.5455 39.9924 28.3848 40.1182 28.2173Z" fill="white"/>
<path d="M8.04777 27.3613C8.65717 27.9209 9.28079 28.4426 9.84277 29.0212C10.151 29.3413 10.0419 30.7948 9.74792 31.1861C9.06739 32.0942 8.39871 33.0142 7.68261 33.894C7.46304 34.1398 7.17873 34.3189 6.86218 34.4109C6.68932 34.4718 6.49962 34.4636 6.33264 34.3881C6.16565 34.3125 6.03427 34.1754 5.96587 34.0054C5.84967 33.6422 5.87768 33.2483 6.04412 32.9052C6.58238 32.0634 7.22971 31.2999 7.82488 30.4913C7.95101 30.3189 8.02507 30.114 8.03829 29.9009C8.062 29.0876 8.04777 28.2671 8.04777 27.3613Z" fill="white"/>
<path d="M12.6172 18.711C12.7025 19.5931 11.8347 20.3495 10.8672 20.276C10.5247 20.2591 10.1947 20.1418 9.91847 19.9385C9.64224 19.7352 9.43203 19.4551 9.31409 19.133C9.21654 18.7968 9.21693 18.4397 9.31521 18.1037C9.41349 17.7677 9.60559 17.4667 9.86895 17.2361C10.4262 16.7618 11.102 16.7429 11.8181 17.0488C12.2923 17.2574 12.8614 17.2859 13.3736 17.4329C13.5625 17.5158 13.7383 17.6261 13.8952 17.7601C13.7364 17.9071 13.5988 18.1134 13.421 18.1917C13.1508 18.2946 12.8657 18.353 12.5768 18.3648C12.1254 18.3662 11.6746 18.3987 11.2276 18.462C11.455 18.5436 11.687 18.6117 11.9224 18.6659C12.1529 18.6946 12.3849 18.7096 12.6172 18.711Z" fill="white"/>
<path d="M37.7304 17.8743L39.459 18.1967C38.769 17.834 38.1288 17.521 37.5146 17.1629C37.2514 17.0088 36.8697 16.7835 37.0807 16.4278C37.1637 16.2856 37.6332 16.2903 37.8988 16.3496C38.4112 16.5065 38.9406 16.6013 39.4756 16.6318C40.5521 16.6318 41.1995 17.5328 41.0525 18.6781C40.9386 19.5697 39.9783 20.2289 39.0535 20.0439C38.0244 19.8376 37.3937 18.7848 37.7304 17.8743Z" fill="white"/>
<path d="M39.8147 23.2896C39.4765 23.6528 39.1666 24.0412 38.8875 24.4515C38.5224 25.0751 37.9794 25.3241 37.3154 25.4427C36.6515 25.5612 35.9544 25.7652 35.2643 25.8624C34.92 25.8682 34.5761 25.8332 34.24 25.758L34.2613 25.7723C34.2187 24.8973 34.2187 24.8997 35.0486 24.6483C35.1031 24.6317 35.1434 24.5653 35.1885 24.5226H35.1695C35.9164 24.3875 36.6728 24.2998 37.3984 24.0935C37.6569 24.02 37.8584 23.6785 38.041 23.4272C38.4417 22.8747 38.814 22.2985 39.1958 21.7318L39.1792 21.7531C39.21 21.7531 39.2551 21.7531 39.274 21.7223C39.5633 21.3737 39.9308 21.248 40.2723 21.5753C40.6138 21.9025 40.4383 22.2439 40.213 22.5735C40.0565 22.8106 39.9332 23.0478 39.7957 23.2849L39.8147 23.2896Z" fill="white"/>
<path d="M11.7325 24.1859C12.0598 24.3993 12.3751 24.6317 12.7166 24.819C13.1766 25.0561 13.6651 25.2624 14.1274 25.5161C14.4689 25.7011 14.7534 25.9477 14.5353 26.4148C14.3171 26.882 13.9212 26.8037 13.5868 26.6401C12.515 26.1279 11.4527 25.5825 10.407 25.0301C10.2317 24.9294 10.0874 24.7826 9.98972 24.6056C9.60796 23.8943 9.24517 23.1829 8.88949 22.4715C8.67134 22.0352 8.7567 21.6867 9.12661 21.5088C9.49651 21.331 9.7692 21.5397 9.94704 21.874C10.2482 22.4455 10.5422 23.0217 10.8457 23.5907C11.0378 23.9512 11.2844 24.2428 11.7515 24.1954L11.7325 24.1859Z" fill="white"/>
<path d="M34.9088 27.9802C34.814 28.0656 34.7049 28.2363 34.6266 28.2174C34.3895 28.1794 34.0267 28.4972 33.9153 27.966L34.7737 27.8403L34.9088 27.9802Z" fill="white"/>
<path d="M15.9772 30.3513C15.8823 30.4367 15.7733 30.6074 15.695 30.5884C15.4579 30.5529 15.0951 30.8682 14.9836 30.3371L15.842 30.2114L15.9772 30.3513Z" fill="white"/>
<path d="M35.1884 24.5229C35.1433 24.5656 35.103 24.632 35.0485 24.6486C34.2186 24.9 34.2186 24.8857 34.2612 25.7726C34.1677 25.6715 34.1043 25.5462 34.0782 25.411C34.0522 25.2757 34.0646 25.1359 34.1139 25.0073C34.1633 24.8787 34.2477 24.7665 34.3575 24.6834C34.4674 24.6003 34.5983 24.5497 34.7355 24.5372C34.8859 24.5218 35.0373 24.5171 35.1884 24.5229Z" fill="white"/>
<path d="M39.7957 23.3062C39.9332 23.0691 40.0565 22.813 40.213 22.5949C40.4383 22.2653 40.6019 21.9049 40.2723 21.5966C39.9427 21.2884 39.561 21.3951 39.274 21.7436C39.2551 21.765 39.21 21.765 39.1792 21.7745C39.201 21.677 39.244 21.5855 39.3053 21.5066C39.3665 21.4276 39.4444 21.3632 39.5335 21.3179C39.6225 21.2726 39.7204 21.2475 39.8203 21.2445C39.9201 21.2414 40.0194 21.2604 40.1111 21.3002C40.2097 21.3297 40.3009 21.3799 40.3786 21.4475C40.4563 21.515 40.5187 21.5984 40.5616 21.692C40.6044 21.7856 40.6268 21.8873 40.6272 21.9902C40.6277 22.0932 40.6061 22.1951 40.564 22.289C40.3384 22.6501 40.0813 22.9905 39.7957 23.3062Z" fill="white"/>
</svg>
